<?xml version="1.0" encoding="utf-8"?>
<!-- Generator: Adobe Illustrator 16.0.0, SVG Export Plug-In . SVG Version: 6.00 Build 0)  -->
<!DOCTYPE svg PUBLIC "-//W3C//DTD SVG 1.0//EN" "http://www.w3.org/TR/2001/REC-SVG-20010904/DTD/svg10.dtd">
<svg version="1.0" id="Capa_1" xmlns="http://www.w3.org/2000/svg" xmlns:xlink="http://www.w3.org/1999/xlink" x="0px" y="0px"
	 width="201.844px" height="224.783px" viewBox="0 0 201.844 224.783" enable-background="new 0 0 201.844 224.783"
	 xml:space="preserve">
<path d="M196.542,94.526c0-3.568,0-5.131,0-8.896l-27.657,17.615c-0.166-0.083,0-59.488,0-59.488c0-9.899-6.807-13.61-15.127-8.246
	l-45.744,29.494c-8.32,5.364-15.129,17.854-15.129,27.754l0.016,1.853c0,4.926,0,3.12,0,9.417c0.016,0-23.213,14.75-23.166,14.735
	c-0.043,0.07-0.103-116.101-0.099-105.435c0-9.9-7.759-13.526-16.122-8.228L6.923,34.624c0,3.642,0,5.475,0,8l19.591-12.414
	c3.994-2.53,15.267-9.298,15.267-9.298c0,0.031-0.062,12.492-0.062,17.664v97.182c0,9.9,6.754,13.52,15.094,8.186
	c0,0,36.057-22.953,36.057-22.938c0,0,0.02,12.76,0.021,17.543v3.777c0.003,9.9,6.815,13.615,15.223,8.674
	c0,0,32.854-21.002,32.771-20.838c-0.053,0.105,0,40.359,0,40.359c1,9.4-3.137,20.289-9.188,24.119
	c-6.049,3.83-11.812-0.787-10.812-10.688v-14.277c0.062-4.629-0.032-11.879-0.032-18.191c0.062-0.062-11.336,7.225-15.906,10.156
	l-59.912,38.064c0,0.061-0.068,8.867,0,8.873c0,0,47.787-30.25,47.787-30.312s0.062,12.094,0.062,17.135v13.65
	c0,9.9,6.844,13.666,15.208,8.369l45.585-28.865c8.364-5.297,15.207-17.73,15.207-27.631v-31.518c0-3.986-0.082-17.202-0.041-17.161
	C168.803,112.205,196.542,94.526,196.542,94.526z M141.166,121.236l-20.25,12.885V65.744l20.25-12.936V121.236z"/>
</svg>
